# xmcd CD database file
#
# Track frame offsets:
#	150
#	14198
#	33711
#	54431
#	70654
#	93916
#	115113
#	126047
#	153715
#	173790
#	188240
#	204677
#	219033
#	235363
#	258157
#	269625
#	291222
#	307950
#	327763
#
# Disc length: 4511 seconds
#
# Revision: 0
# Processed by: cddbd v1.5.2PL0 Copyright (c) Steve Scherf et al.
# Submitted via: CDex 1.70beta2
#
DISCID=16119d13
DTITLE=Kirk, Roland - We Free Kings - Domino
DYEAR=1962
DGENRE=Jazz
TTITLE0=Three For The Festival
TTITLE1=Moon Song
TTITLE2=A Sack Full Of Soul
TTITLE3=The Haunted Melody
TTITLE4=Blues For Alice
TTITLE5=We Three Kings
TTITLE6=You Did It, You Did It
TTITLE7=Some Kind Of Love
TTITLE8=My Delight
TTITLE9=Domino
TTITLE10=Meeting On Termin's Corner
TTITLE11=Time
TTITLE12=Lament
TTITLE13=A Stritch In Time
TTITLE14=3-In-1 Without The Oil
TTITLE15=Get Out Of Town
TTITLE16=Rolando
TTITLE17=I Belive In You
TTITLE18=E. D.
EXTD=YEAR: 1962
EXTT0=
EXTT1=
EXTT2=
EXTT3=
EXTT4=
EXTT5=
EXTT6=
EXTT7=
EXTT8=
EXTT9=
EXTT10=
EXTT11=
EXTT12=
EXTT13=
EXTT14=
EXTT15=
EXTT16=
EXTT17=
EXTT18=
PLAYORDER=
